<?xml version="1.0" standalone="no"?>
<!DOCTYPE svg PUBLIC "-//W3C//DTD SVG 20010904//EN"
 "http://www.w3.org/TR/2001/REC-SVG-20010904/DTD/svg10.dtd">
<svg version="1.0" xmlns="http://www.w3.org/2000/svg"
 width="2000.000000pt" height="2000.000000pt" viewBox="0 0 2000.000000 2000.000000"
 preserveAspectRatio="xMidYMid meet">

<g transform="translate(0.000000,2000.000000) scale(0.100000,-0.100000)"
fill="#000000" stroke="none">
<path d="M9960 14056 c-14 -7 -48 -16 -76 -19 -54 -6 -96 -27 -183 -90 -70
-52 -1673 -1655 -1729 -1730 -55 -74 -92 -152 -92 -197 0 -20 -7 -45 -15 -58
-12 -16 -13 -27 -6 -41 6 -11 15 -51 21 -90 10 -70 20 -95 74 -181 37 -59
1717 -1739 1776 -1776 111 -70 216 -93 345 -75 84 12 131 33 220 96 33 24 436
421 895 882 619 621 844 853 869 895 40 69 60 123 61 162 0 16 5 46 12 67 8
29 8 45 0 62 -6 12 -14 44 -17 71 -7 50 -18 75 -69 156 -41 65 -1659 1688
-1756 1761 -70 54 -146 89 -190 89 -19 1 -46 7 -60 15 -31 18 -48 18 -80 1z
m-84 -270 c3 -8 -4 -32 -15 -55 -12 -22 -21 -45 -21 -52 0 -6 -7 -25 -15 -42
-13 -30 -21 -51 -61 -162 -8 -22 -19 -49 -24 -60 -5 -11 -16 -39 -25 -62 -37
-105 -47 -130 -60 -160 -8 -17 -15 -36 -15 -42 0 -12 -41 -107 -68 -156 -6
-11 -23 -47 -38 -80 -32 -69 -51 -95 -72 -95 -8 0 -44 14 -81 31 -36 17 -86
40 -111 51 -25 11 -62 29 -82 39 -20 11 -44 19 -52 19 -23 0 -77 50 -68 63 18
29 780 777 791 777 6 0 14 -6 17 -14z m673 -381 c334 -332 385 -387 375 -402
-11 -18 -18 -22 -106 -62 -103 -46 -135 -60 -199 -90 -77 -36 -90 -37 -111
-13 -22 26 -148 293 -148 313 0 6 -7 25 -15 42 -13 31 -24 57 -59 157 -9 25
-21 54 -26 65 -5 11 -16 38 -24 60 -40 111 -48 132 -61 162 -8 17 -15 36 -15
42 0 7 -9 30 -20 52 -22 42 -20 59 8 59 9 0 189 -173 401 -385z m-511 120 c7
-22 17 -49 22 -60 5 -11 16 -39 25 -62 8 -24 22 -62 30 -85 9 -24 20 -52 25
-63 5 -11 17 -40 26 -65 54 -151 44 -128 123 -290 69 -143 74 -167 34 -175
-16 -4 -44 -13 -63 -22 -19 -8 -86 -21 -147 -28 -94 -11 -132 -11 -225 0 -62
7 -129 20 -148 28 -19 9 -47 18 -62 22 -41 8 -36 32 33 175 79 162 69 139 123
290 9 25 21 54 26 65 5 11 16 38 24 60 7 22 19 56 26 75 7 19 21 53 31 76 11
23 19 47 19 53 0 27 22 52 43 49 16 -2 26 -14 35 -43z m-1094 -681 c9 -8 16
-22 16 -30 0 -8 8 -32 19 -52 10 -20 28 -58 40 -84 11 -27 31 -69 42 -95 12
-27 30 -65 40 -85 22 -42 17 -51 -42 -80 -19 -9 -72 -35 -118 -57 -46 -23 -88
-41 -95 -41 -6 -1 -29 -9 -51 -20 -22 -11 -46 -19 -53 -20 -8 0 -26 -7 -40
-15 -15 -8 -45 -21 -67 -29 -22 -8 -56 -19 -75 -26 -19 -7 -48 -19 -65 -26
-28 -13 -49 -21 -155 -58 -25 -9 -54 -21 -65 -26 -49 -23 -137 -51 -143 -46
-3 4 1 18 9 32 22 36 761 774 775 774 7 0 20 -7 28 -16z m2539 -372 c337 -338
413 -422 380 -422 -9 0 -108 36 -138 50 -11 5 -39 16 -62 25 -24 8 -62 22 -85
30 -24 9 -56 22 -73 29 -16 7 -46 19 -65 26 -19 7 -53 18 -75 26 -22 8 -52 21
-67 29 -14 8 -32 15 -40 15 -7 1 -31 9 -53 20 -22 11 -45 19 -51 20 -6 0 -37
13 -70 29 -32 16 -89 43 -126 61 -37 18 -69 37 -71 44 -3 6 13 50 35 96 22 47
49 105 60 130 11 25 29 62 39 82 11 20 19 44 19 52 0 18 27 46 44 46 6 0 186
-175 399 -388z m-2238 258 c6 -4 21 -10 35 -13 14 -4 39 -18 55 -32 l30 -25
-47 -45 c-26 -25 -50 -45 -55 -45 -8 0 -57 98 -68 137 -11 39 12 50 50 23z
m1559 -18 c-8 -38 -57 -142 -67 -142 -5 0 -29 20 -55 45 l-47 45 30 25 c17 14
41 28 54 32 14 3 36 12 50 19 32 17 43 9 35 -24z m-1209 -131 c94 -35 190 -60
298 -77 100 -16 114 -16 215 0 108 17 204 42 300 78 l53 20 90 -93 c105 -109
114 -122 99 -148 -5 -11 -10 -28 -10 -38 0 -10 -7 -31 -15 -47 -37 -71 -60
-207 -60 -356 0 -148 7 -190 55 -325 10 -27 24 -70 31 -94 l13 -44 -39 -31
c-21 -17 -64 -57 -95 -88 -63 -65 -77 -69 -155 -39 -149 57 -183 62 -375 62
-192 0 -210 -3 -378 -62 -79 -28 -91 -25 -152 36 -30 30 -73 70 -94 89 l-40
33 23 74 c12 41 34 112 49 159 23 74 26 103 26 225 1 144 -14 241 -54 350 -33
93 -39 116 -32 133 8 17 183 201 192 202 2 0 27 -8 55 -19z m-387 -346 c29
-60 62 -228 62 -313 0 -35 -7 -95 -16 -135 -16 -77 -63 -217 -72 -217 -3 0
-74 34 -158 75 -84 41 -158 75 -164 75 -7 0 -26 7 -43 15 -30 13 -51 21 -162
61 -22 8 -49 19 -60 24 -20 9 -68 27 -155 58 -68 23 -104 51 -89 68 6 8 20 14
31 14 10 0 36 9 58 20 22 11 45 20 51 20 6 0 30 8 53 19 23 10 57 24 76 31 19
6 58 21 85 32 28 11 68 27 90 34 22 8 54 21 72 29 17 8 36 15 42 15 6 0 37 14
68 32 123 67 188 98 198 95 5 -2 21 -25 33 -52z m1702 16 c114 -61 173 -91
183 -91 5 0 23 -7 40 -15 18 -8 50 -21 72 -29 22 -7 63 -23 90 -34 28 -11 66
-26 85 -32 19 -7 53 -21 76 -31 23 -11 47 -19 53 -19 6 0 29 -9 51 -20 22 -11
47 -20 57 -20 10 0 25 -5 33 -10 13 -9 10 -14 -14 -33 -17 -12 -50 -29 -75
-39 -25 -9 -66 -23 -91 -32 -25 -9 -54 -21 -65 -26 -11 -5 -39 -16 -62 -25
-105 -37 -130 -47 -160 -60 -17 -8 -36 -15 -43 -15 -6 0 -81 -34 -166 -76 -84
-41 -158 -73 -164 -69 -5 3 -10 14 -10 23 0 9 -7 30 -15 46 -22 43 -57 211
-57 276 0 110 47 308 85 358 12 15 25 11 97 -27z m-2685 -467 c17 -7 48 -20
70 -28 22 -8 72 -26 110 -41 39 -14 84 -30 100 -35 17 -5 39 -14 50 -20 11 -5
40 -17 65 -26 202 -72 238 -87 367 -150 128 -62 139 -73 114 -122 -5 -9 -21
-44 -36 -77 -15 -33 -35 -78 -45 -100 -10 -22 -30 -65 -44 -95 -14 -30 -26
-61 -26 -68 0 -7 -12 -18 -26 -24 -24 -11 -37 0 -395 358 -361 360 -417 422
-404 444 8 13 54 5 100 -16z m3645 -1 c0 -22 -70 -97 -384 -412 -372 -373
-385 -385 -410 -373 -15 6 -28 23 -32 39 -4 15 -15 44 -24 63 -10 19 -27 55
-38 80 -11 25 -36 80 -56 122 -55 117 -56 113 87 182 116 57 167 79 247 106
19 7 54 21 78 31 23 11 48 19 55 19 6 1 30 9 52 20 22 11 46 19 53 20 8 0 28
7 45 15 30 13 47 20 157 60 25 9 59 22 75 29 30 14 59 23 83 25 7 1 12 -10 12
-26z m-2558 -520 c18 -15 36 -32 40 -37 13 -19 -13 -46 -67 -72 -62 -29 -92
-28 -87 1 5 35 56 135 69 135 6 0 26 -12 45 -27z m1461 -31 c28 -58 34 -96 18
-106 -12 -8 -131 55 -145 76 -8 13 -5 22 17 42 31 28 57 45 72 46 6 0 22 -26
38 -58z m-663 -41 c119 -17 240 -60 240 -85 0 -6 -27 -67 -61 -136 -79 -161
-71 -143 -119 -280 -7 -19 -21 -54 -31 -78 -11 -23 -19 -47 -19 -53 0 -6 -7
-25 -15 -42 -13 -30 -22 -52 -55 -147 -7 -19 -17 -45 -21 -57 -5 -14 -17 -23
-29 -23 -12 0 -24 9 -29 23 -8 21 -14 37 -47 132 -8 22 -19 49 -24 60 -5 11
-16 39 -25 63 -37 104 -47 129 -60 159 -8 17 -15 36 -15 43 0 15 -17 54 -91
205 -33 66 -59 125 -59 131 0 16 50 40 120 59 119 32 232 41 340 26z m-567
-251 c47 -92 61 -124 92 -212 9 -24 20 -52 25 -63 5 -11 16 -39 25 -62 8 -24
22 -62 30 -85 9 -24 20 -52 25 -63 5 -11 16 -38 24 -60 7 -22 19 -56 26 -75 7
-19 21 -53 31 -76 11 -23 19 -47 19 -53 0 -6 9 -29 20 -51 27 -54 27 -90 -2
-90 -27 0 -813 780 -806 800 2 7 49 33 103 57 182 80 210 93 245 113 19 11 49
19 65 17 27 -2 34 -11 78 -97z m1055 80 c37 -20 210 -100 216 -100 2 0 33 -14
70 -30 l66 -30 -14 -28 c-8 -15 -185 -197 -394 -404 -384 -383 -422 -415 -422
-353 0 14 9 43 20 65 11 22 20 44 20 51 0 6 7 25 15 42 13 30 23 55 60 160 9
23 20 51 25 62 5 11 16 39 25 63 37 104 47 129 60 159 8 17 15 36 15 42 0 16
123 282 143 309 14 18 53 15 95 -8z"/>
<path d="M2875 8550 c-174 -35 -321 -116 -429 -237 -47 -53 -126 -182 -126
-207 0 -8 -10 -39 -21 -68 -18 -46 -21 -74 -22 -213 0 -170 10 -226 67 -345
123 -258 399 -413 711 -398 221 11 405 110 541 293 69 92 113 196 90 213 -24
20 -110 52 -136 52 -30 0 -61 -38 -74 -90 -13 -55 -185 -230 -225 -230 -5 0
-30 -10 -57 -22 -42 -19 -67 -22 -179 -21 -131 0 -156 5 -260 54 -71 34 -162
119 -201 189 -56 99 -69 155 -69 295 0 102 4 141 19 180 36 99 69 155 127 218
105 116 247 165 429 150 157 -13 302 -114 385 -268 15 -28 83 -24 144 9 39 21
46 28 45 53 -2 45 -78 156 -151 222 -124 111 -311 182 -478 180 -49 -1 -108
-5 -130 -9z"/>
<path d="M4347 8543 c-14 -17 -24 -39 -63 -148 -8 -22 -19 -49 -24 -60 -5 -11
-16 -38 -24 -60 -8 -22 -24 -65 -36 -95 -12 -30 -28 -73 -36 -95 -8 -22 -19
-49 -24 -60 -5 -11 -16 -38 -24 -60 -8 -22 -24 -65 -36 -95 -12 -30 -28 -73
-36 -95 -8 -22 -19 -49 -24 -60 -5 -11 -16 -38 -24 -60 -8 -22 -24 -65 -36
-95 -12 -30 -28 -73 -36 -95 -8 -22 -19 -49 -24 -60 -5 -11 -16 -38 -24 -60
-8 -22 -24 -65 -36 -95 -70 -173 -70 -172 51 -168 70 2 94 7 99 18 27 54 73
183 110 310 33 112 47 139 72 145 13 3 66 -1 118 -10 121 -19 212 -19 346 1
122 18 150 12 159 -33 8 -38 42 -158 61 -213 8 -25 19 -58 23 -75 5 -16 16
-43 25 -60 9 -16 16 -37 16 -45 0 -32 23 -40 109 -40 48 0 92 4 100 9 14 9 10
24 -49 171 -12 30 -28 73 -36 95 -8 22 -19 49 -24 60 -5 11 -16 38 -24 60 -8
22 -24 65 -36 95 -12 30 -28 73 -36 95 -8 22 -19 49 -24 60 -5 11 -16 38 -24
60 -8 22 -24 65 -36 95 -12 30 -28 73 -36 95 -8 22 -19 49 -24 60 -5 11 -16
38 -24 60 -8 22 -24 65 -36 95 -12 30 -28 73 -36 95 -8 22 -19 49 -24 60 -5
11 -16 39 -25 63 -8 23 -22 61 -31 85 -22 61 -34 67 -144 67 -80 0 -100 -3
-113 -17z m137 -185 c8 -12 20 -47 26 -77 23 -119 76 -277 151 -450 12 -27 22
-66 23 -88 1 -37 1 -38 -34 -36 -19 1 -82 5 -139 9 -66 4 -135 2 -188 -6 -56
-8 -88 -9 -95 -2 -10 10 16 117 32 127 4 3 11 17 15 32 3 16 15 46 24 68 33
72 61 150 61 169 0 10 7 32 15 49 8 18 21 65 29 106 15 72 37 121 56 121 5 0
16 -10 24 -22z"/>
<path d="M5403 8553 c-10 -4 -13 -160 -13 -733 0 -654 2 -728 16 -734 24 -9
157 -7 173 3 11 7 12 40 8 167 -3 88 -10 212 -17 278 -15 149 -11 156 73 132
31 -9 84 -19 119 -22 35 -4 69 -11 76 -17 10 -8 227 -325 277 -405 28 -45 52
-80 74 -110 25 -32 25 -32 115 -32 50 0 97 4 105 9 15 9 18 4 -103 180 -28 40
-58 83 -66 95 -8 11 -63 83 -123 158 -60 76 -106 142 -102 148 3 5 15 10 26
10 27 0 137 39 179 63 63 36 121 100 152 167 28 60 30 73 30 183 1 108 -2 125
-28 190 -30 76 -110 168 -170 199 -16 8 -38 19 -49 25 -11 6 -51 20 -90 32
-65 20 -91 21 -360 20 -159 0 -296 -3 -302 -6z m314 -163 c38 -5 121 -15 186
-21 87 -9 124 -16 141 -30 13 -11 29 -19 35 -19 17 0 70 -63 96 -114 50 -99
26 -232 -56 -314 -66 -67 -118 -84 -279 -93 -80 -4 -161 -12 -180 -18 -94 -29
-103 -13 -89 156 7 93 7 171 -1 285 -7 86 -9 162 -5 167 8 14 65 14 152 1z"/>
<path d="M7235 8550 c-111 -21 -173 -43 -275 -101 -51 -29 -128 -100 -181
-166 -90 -114 -125 -196 -148 -352 -25 -167 -6 -298 67 -451 46 -97 166 -231
257 -287 126 -78 286 -118 431 -110 115 7 184 26 304 85 133 66 236 169 302
302 64 131 80 189 85 310 10 218 -70 428 -219 573 -157 154 -416 236 -623 197z
m299 -217 c126 -52 206 -125 270 -247 32 -60 66 -200 66 -268 0 -116 -50 -259
-123 -353 -183 -236 -540 -257 -756 -44 -33 32 -65 70 -73 86 -8 15 -19 37
-25 48 -46 84 -56 129 -56 265 0 136 10 181 56 265 6 11 16 31 23 44 29 56
135 149 212 187 122 59 287 66 406 17z"/>
<path d="M8403 8553 c-10 -4 -13 -160 -13 -734 l0 -729 23 -5 c12 -3 211 -4
442 -3 l420 3 3 70 c5 122 15 115 -156 115 -81 0 -185 -5 -232 -11 -46 -5
-138 -11 -205 -12 l-120 -2 2 215 c2 118 7 282 13 363 5 82 10 278 10 437 0
253 -2 289 -16 294 -19 7 -153 7 -171 -1z"/>
<path d="M9936 8544 c-9 -8 -16 -22 -16 -31 0 -8 -7 -27 -15 -41 -8 -15 -22
-46 -30 -69 -8 -24 -22 -62 -30 -85 -8 -24 -22 -55 -30 -70 -8 -14 -15 -31
-15 -38 0 -7 -7 -26 -15 -43 -14 -31 -26 -63 -59 -157 -9 -25 -23 -57 -31 -72
-8 -14 -15 -31 -15 -38 0 -7 -7 -26 -15 -43 -14 -31 -26 -63 -59 -157 -9 -25
-23 -57 -31 -72 -8 -14 -15 -34 -15 -43 0 -9 -7 -29 -15 -43 -8 -15 -21 -45
-29 -67 -8 -22 -23 -62 -34 -90 -11 -27 -26 -66 -32 -85 -7 -19 -21 -53 -31
-76 -11 -23 -19 -47 -19 -54 0 -6 -8 -25 -17 -41 -24 -41 -9 -49 95 -49 69 0
85 3 102 20 11 11 20 29 20 40 0 12 6 33 14 49 8 15 27 65 41 112 15 46 36
108 46 137 11 30 19 62 19 73 0 10 11 26 25 35 23 15 33 15 129 0 131 -20 218
-20 349 -1 56 9 112 13 124 10 22 -5 37 -38 62 -135 26 -96 42 -146 56 -177 8
-17 15 -36 15 -43 0 -6 11 -36 25 -66 l25 -54 89 0 c104 0 117 8 99 61 -6 19
-17 43 -25 54 -7 11 -13 26 -13 33 0 8 -7 28 -15 45 -14 31 -26 63 -59 157 -9
25 -23 57 -31 72 -8 14 -15 31 -15 38 0 7 -7 26 -15 43 -14 31 -26 63 -59 157
-9 25 -23 57 -31 72 -8 14 -15 34 -15 43 0 9 -7 29 -15 43 -8 15 -21 45 -29
67 -8 22 -24 65 -36 95 -12 30 -28 73 -36 95 -8 22 -19 49 -24 60 -5 11 -16
38 -24 60 -8 22 -24 65 -36 95 -12 30 -30 76 -39 102 -29 83 -37 88 -150 88
-77 0 -103 -4 -115 -16z m156 -230 c5 -21 16 -65 23 -97 7 -32 21 -76 29 -98
9 -22 16 -47 16 -57 1 -9 9 -35 20 -57 11 -22 19 -46 20 -53 0 -6 9 -29 20
-49 11 -21 20 -43 20 -50 0 -7 9 -30 21 -52 11 -22 19 -53 17 -68 -3 -25 -6
-28 -38 -26 -186 13 -281 13 -341 1 -36 -8 -71 -12 -78 -10 -13 4 -15 54 -2
68 5 5 16 27 24 49 8 22 25 65 37 95 22 54 65 179 96 273 8 27 19 74 24 105
11 66 43 104 67 79 8 -8 19 -32 25 -53z"/>
<path d="M11405 8548 c-3 -7 -4 -339 -3 -738 l3 -725 95 0 95 0 3 115 c3 106
-12 361 -25 437 -4 28 -2 33 18 38 13 3 44 -2 69 -11 32 -12 89 -18 200 -21
146 -5 159 -3 233 21 187 61 292 181 316 362 34 244 -69 419 -299 506 -51 20
-80 22 -378 25 -260 3 -323 2 -327 -9z m300 -158 c22 -5 102 -14 178 -20 180
-15 233 -41 299 -148 17 -28 21 -50 21 -127 0 -101 -12 -133 -70 -186 -60 -55
-94 -68 -213 -79 -63 -6 -159 -18 -213 -26 -121 -18 -142 -11 -133 44 15 89
18 330 6 423 -7 53 -10 104 -7 113 7 18 67 21 132 6z"/>
<path d="M12692 8548 c-17 -17 -18 -1438 0 -1456 14 -14 854 -17 877 -3 17 11
16 148 -1 169 -14 17 -268 13 -511 -8 -114 -10 -163 -11 -175 -3 -15 9 -16 29
-12 189 3 99 5 391 5 649 l0 470 -85 3 c-58 2 -89 -1 -98 -10z"/>
<path d="M14227 8543 c-14 -17 -24 -39 -63 -148 -8 -22 -19 -49 -24 -60 -5
-11 -16 -38 -24 -60 -8 -22 -24 -65 -36 -95 -12 -30 -28 -73 -36 -95 -8 -22
-19 -49 -24 -60 -5 -11 -16 -38 -24 -60 -8 -22 -24 -65 -36 -95 -12 -30 -28
-73 -36 -95 -8 -22 -19 -49 -24 -60 -5 -11 -16 -38 -24 -60 -8 -22 -24 -65
-36 -95 -12 -30 -28 -73 -36 -95 -8 -22 -19 -49 -24 -60 -5 -11 -16 -38 -24
-60 -8 -22 -24 -65 -36 -95 -70 -173 -70 -172 51 -168 70 2 94 7 99 18 27 54
73 183 110 310 33 112 47 139 72 145 13 3 66 -1 118 -10 121 -19 212 -19 346
1 122 18 150 12 159 -33 8 -38 42 -158 61 -213 8 -25 19 -58 23 -75 5 -16 16
-43 25 -60 9 -16 16 -37 16 -45 0 -32 23 -40 109 -40 48 0 92 4 100 9 14 9 10
24 -49 171 -12 30 -28 73 -36 95 -8 22 -19 49 -24 60 -5 11 -16 38 -24 60 -8
22 -24 65 -36 95 -12 30 -28 73 -36 95 -8 22 -19 49 -24 60 -5 11 -16 38 -24
60 -8 22 -24 65 -36 95 -12 30 -28 73 -36 95 -8 22 -19 49 -24 60 -5 11 -16
38 -24 60 -8 22 -24 65 -36 95 -12 30 -28 73 -36 95 -8 22 -19 49 -24 60 -5
11 -16 39 -25 63 -8 23 -22 61 -31 85 -22 61 -34 67 -144 67 -80 0 -100 -3
-113 -17z m137 -185 c8 -12 20 -47 26 -77 23 -119 76 -277 151 -450 12 -27 22
-66 23 -88 1 -37 1 -38 -34 -36 -19 1 -82 5 -139 9 -66 4 -135 2 -188 -6 -56
-8 -88 -9 -95 -2 -10 10 16 117 32 127 4 3 11 17 15 32 3 16 15 46 24 68 33
72 61 150 61 169 0 10 7 32 15 49 8 18 21 65 29 106 15 72 37 121 56 121 5 0
16 -10 24 -22z"/>
<path d="M15192 8548 c-7 -7 -12 -40 -12 -80 0 -102 -12 -99 320 -82 151 7
318 19 370 25 149 19 164 18 168 -9 2 -15 -5 -32 -17 -43 -18 -17 -184 -217
-251 -302 -13 -18 -74 -95 -135 -172 -105 -133 -364 -473 -394 -519 -8 -11
-31 -41 -50 -65 -31 -39 -35 -51 -39 -120 -3 -59 -1 -79 10 -89 12 -9 141 -12
559 -10 l544 3 3 81 c2 64 -1 84 -13 94 -12 10 -62 11 -263 1 -295 -14 -498
-27 -568 -36 -47 -7 -53 -5 -59 14 -5 17 2 32 32 64 21 23 52 60 68 82 17 22
36 47 44 55 19 20 392 489 411 517 8 11 56 74 106 140 49 65 119 156 155 203
l64 85 4 79 c2 58 0 81 -10 87 -23 14 -1033 11 -1047 -3z"/>
<path d="M16947 8543 c-14 -17 -24 -39 -63 -148 -8 -22 -19 -49 -24 -60 -5
-11 -16 -38 -24 -60 -8 -22 -24 -65 -36 -95 -12 -30 -28 -73 -36 -95 -8 -22
-19 -49 -24 -60 -5 -11 -16 -38 -24 -60 -8 -22 -24 -65 -36 -95 -12 -30 -28
-73 -36 -95 -8 -22 -19 -49 -24 -60 -5 -11 -16 -38 -24 -60 -8 -22 -24 -65
-36 -95 -12 -30 -28 -73 -36 -95 -8 -22 -19 -49 -24 -60 -5 -11 -16 -38 -24
-60 -8 -22 -24 -65 -36 -95 -70 -173 -70 -172 51 -168 70 2 94 7 99 18 27 54
73 183 110 310 33 112 47 139 72 145 13 3 66 -1 118 -10 121 -19 212 -19 346
1 122 18 150 12 159 -33 8 -38 42 -158 61 -213 8 -25 19 -58 23 -75 5 -16 16
-43 25 -60 9 -16 16 -37 16 -45 0 -32 23 -40 109 -40 48 0 92 4 100 9 14 9 10
24 -49 171 -12 30 -28 73 -36 95 -8 22 -19 49 -24 60 -5 11 -16 38 -24 60 -8
22 -24 65 -36 95 -12 30 -28 73 -36 95 -8 22 -19 49 -24 60 -5 11 -16 38 -24
60 -8 22 -24 65 -36 95 -12 30 -28 73 -36 95 -8 22 -19 49 -24 60 -5 11 -16
38 -24 60 -8 22 -24 65 -36 95 -12 30 -28 73 -36 95 -8 22 -19 49 -24 60 -5
11 -16 39 -25 63 -8 23 -22 61 -31 85 -22 61 -34 67 -144 67 -80 0 -100 -3
-113 -17z m137 -185 c8 -12 20 -47 26 -77 23 -119 76 -277 151 -450 12 -27 22
-66 23 -88 1 -37 1 -38 -34 -36 -19 1 -82 5 -139 9 -66 4 -135 2 -188 -6 -56
-8 -88 -9 -95 -2 -10 10 16 117 32 127 4 3 11 17 15 32 3 16 15 46 24 68 33
72 61 150 61 169 0 10 7 32 15 49 8 18 21 65 29 106 15 72 37 121 56 121 5 0
16 -10 24 -22z"/>
<path d="M2522 6308 c-26 -26 7 -38 107 -38 53 0 103 -5 111 -10 13 -8 15 -47
15 -253 0 -224 -2 -247 -20 -281 -19 -36 -76 -76 -109 -76 -31 0 -102 43 -118
71 -17 29 -51 39 -63 19 -3 -5 4 -27 16 -48 49 -84 155 -115 243 -71 26 12 59
39 74 58 l27 36 3 294 c3 236 1 295 -10 302 -21 14 -262 11 -276 -3z"/>
<path d="M3705 6296 c-87 -42 -135 -110 -159 -230 -9 -43 -16 -94 -16 -113 0
-44 28 -170 46 -205 97 -189 373 -199 481 -18 71 120 69 352 -4 467 -70 111
-227 156 -348 99z m191 -51 c55 -16 91 -49 123 -112 18 -37 21 -60 21 -173 0
-119 -2 -135 -25 -179 -51 -101 -146 -141 -259 -110 -56 16 -101 55 -128 113
-20 44 -23 64 -23 180 0 123 2 134 27 181 52 97 150 134 264 100z"/>
<path d="M4753 6304 c-3 -8 4 -29 16 -45 12 -16 26 -39 32 -51 5 -13 21 -41
34 -63 14 -22 32 -53 41 -70 8 -16 26 -48 40 -70 56 -93 59 -104 62 -247 4
-141 12 -168 47 -154 12 4 15 30 15 146 l0 141 115 201 c64 111 113 208 110
215 -3 8 -15 13 -27 11 -17 -2 -41 -34 -95 -128 -40 -69 -82 -144 -94 -167
-11 -24 -26 -43 -33 -43 -16 0 -38 25 -61 70 -47 94 -127 234 -144 254 -17 20
-50 21 -58 0z"/>
<path d="M6080 6293 c-6 -16 -16 -44 -24 -63 -14 -35 -38 -104 -70 -195 -10
-27 -22 -68 -27 -90 -6 -21 -14 -44 -18 -50 -5 -5 -15 -32 -24 -60 -8 -27 -27
-81 -42 -120 -33 -86 -35 -108 -13 -113 22 -4 58 32 58 61 1 12 9 40 20 62 11
22 19 47 20 56 0 9 8 23 19 33 15 14 38 16 152 14 l134 -3 27 -55 c15 -30 28
-63 28 -73 0 -28 39 -97 54 -97 28 0 35 23 19 65 -8 22 -21 61 -28 87 -7 25
-19 57 -26 69 -7 13 -16 37 -20 54 -4 16 -29 89 -54 160 -25 72 -55 156 -65
189 -23 71 -44 96 -82 96 -22 0 -31 -6 -38 -27z m66 -84 c4 -6 10 -25 15 -43
4 -17 26 -82 48 -145 30 -86 38 -118 30 -128 -8 -9 -42 -13 -121 -13 -128 0
-132 4 -100 86 42 107 60 159 67 189 7 30 31 65 46 65 4 0 11 -5 15 -11z"/>
<path d="M7185 6296 c-28 -13 -63 -38 -78 -55 -24 -29 -27 -41 -27 -104 0 -67
2 -74 33 -107 40 -43 78 -62 187 -90 100 -27 124 -40 150 -83 26 -41 25 -70
-2 -123 -18 -37 -30 -47 -75 -64 -30 -11 -64 -20 -76 -20 -39 0 -127 36 -155
63 -32 30 -57 35 -66 11 -11 -29 26 -64 107 -101 103 -48 255 -15 311 66 22
32 26 48 26 113 0 75 0 76 -40 117 -22 22 -46 41 -52 41 -7 0 -26 7 -43 16
-16 9 -54 20 -84 24 -148 25 -209 115 -141 210 18 26 99 60 141 60 30 0 130
-41 136 -56 6 -16 59 -19 68 -3 11 17 -35 59 -92 85 -70 33 -159 33 -228 0z"/>
<path d="M9045 6307 c-3 -6 -4 -167 -3 -357 l3 -345 143 -3 c135 -2 145 -1
197 23 108 51 165 167 165 335 0 167 -57 284 -165 334 -50 24 -64 26 -195 26
-104 0 -142 -3 -145 -13z m276 -55 c70 -22 100 -45 133 -107 24 -47 26 -58 26
-185 0 -126 -2 -138 -26 -184 -14 -27 -38 -59 -52 -72 -36 -31 -124 -54 -205
-54 -100 0 -97 -9 -97 310 0 320 -3 310 98 310 37 0 92 -8 123 -18z"/>
<path d="M10303 6313 c-10 -4 -13 -84 -13 -353 0 -308 2 -349 16 -354 9 -3 94
-6 189 -6 179 0 205 3 205 25 0 21 -26 25 -180 25 -108 0 -151 3 -157 13 -4 6
-9 62 -11 122 -3 87 -1 113 10 123 9 7 68 12 164 14 141 3 149 4 149 23 0 19
-8 20 -154 25 l-155 5 -9 35 c-10 40 -6 229 6 248 6 9 49 12 157 12 154 0 180
4 180 25 0 7 -7 16 -16 19 -19 7 -363 7 -381 -1z"/>
<path d="M12400 6293 c-6 -16 -16 -44 -24 -63 -14 -35 -38 -104 -70 -195 -10
-27 -22 -68 -27 -90 -6 -21 -14 -44 -18 -50 -5 -5 -15 -32 -24 -60 -8 -27 -27
-81 -42 -120 -33 -86 -35 -108 -13 -113 22 -4 58 32 58 61 1 12 9 40 20 62 11
22 19 47 20 56 0 9 8 23 19 33 15 14 38 16 152 14 l134 -3 27 -55 c15 -30 28
-63 28 -73 0 -28 39 -97 54 -97 28 0 35 23 19 65 -8 22 -21 61 -28 87 -7 25
-19 57 -26 69 -7 13 -16 37 -20 54 -4 16 -29 89 -54 160 -25 72 -55 156 -65
189 -23 71 -44 96 -82 96 -22 0 -31 -6 -38 -27z m66 -84 c4 -6 10 -25 15 -43
4 -17 26 -82 48 -145 30 -86 38 -118 30 -128 -8 -9 -42 -13 -121 -13 -128 0
-132 4 -100 86 42 107 60 159 67 189 7 30 31 65 46 65 4 0 11 -5 15 -11z"/>
<path d="M13412 6311 c-11 -6 -13 -61 -10 -272 3 -243 5 -268 25 -309 40 -87
113 -130 221 -130 62 0 80 4 127 31 38 21 62 44 82 77 l28 47 3 276 c4 254 3
277 -13 283 -42 16 -45 -4 -45 -260 0 -315 -13 -355 -125 -387 -84 -24 -164 0
-205 60 -25 36 -25 38 -28 302 -3 232 -5 268 -20 279 -19 14 -23 15 -40 3z"/>
<path d="M14592 6308 c-26 -26 7 -38 103 -38 69 0 96 -4 105 -15 9 -11 12 -92
11 -319 -2 -271 0 -305 15 -320 9 -10 24 -16 33 -14 14 3 16 37 19 322 1 210
6 324 13 332 7 9 44 14 112 16 94 3 102 4 102 23 0 19 -8 20 -250 23 -184 2
-254 -1 -263 -10z"/>
<path d="M15917 6296 c-65 -32 -100 -67 -134 -134 -27 -54 -28 -61 -28 -206 1
-146 2 -153 28 -201 59 -105 138 -155 249 -155 113 0 205 60 256 169 25 52 27
66 27 192 0 86 -4 141 -11 150 -6 8 -17 30 -23 50 -16 49 -73 106 -135 135
-70 33 -162 32 -229 0z m196 -52 c95 -32 138 -120 138 -284 0 -164 -43 -252
-138 -284 -124 -42 -238 10 -283 131 -28 75 -28 221 0 300 45 127 156 181 283
137z"/>
<path d="M17063 6313 c-10 -4 -13 -84 -13 -353 0 -300 2 -349 15 -354 19 -7
45 3 46 18 0 6 0 69 -1 139 -1 85 3 134 11 143 15 18 163 20 179 2 11 -13 48
-81 117 -217 39 -76 73 -105 95 -83 9 9 4 27 -21 75 -19 34 -49 90 -67 125
-18 35 -38 70 -44 78 -16 18 -2 36 49 65 119 66 113 280 -9 345 -42 22 -55 24
-195 23 -82 0 -156 -3 -162 -6z m316 -62 c56 -29 64 -44 65 -119 1 -92 -7
-113 -53 -139 -35 -20 -54 -23 -151 -23 -96 0 -112 2 -118 18 -4 9 -7 69 -7
132 0 63 3 123 7 133 11 26 203 25 257 -2z"/>
</g>
</svg>
