<?xml version="1.0" standalone="no"?>
<!DOCTYPE svg PUBLIC "-//W3C//DTD SVG 20010904//EN"
 "http://www.w3.org/TR/2001/REC-SVG-20010904/DTD/svg10.dtd">
<svg version="1.0" xmlns="http://www.w3.org/2000/svg"
 width="584.000000pt" height="584.000000pt" viewBox="0 0 584.000000 584.000000"
 preserveAspectRatio="xMidYMid meet">

<g transform="translate(0.000000,584.000000) scale(0.100000,-0.100000)"
fill="#000000" stroke="none">
<path d="M2895 5524 c-16 -9 -61 -20 -98 -26 -164 -23 -165 -24 -1315 -1172
-1025 -1023 -1098 -1100 -1159 -1226 -12 -25 -25 -70 -29 -100 -3 -30 -13 -70
-22 -88 -11 -25 -12 -39 -4 -57 6 -13 16 -61 22 -106 12 -90 38 -150 103 -239
39 -54 549 -569 1602 -1619 631 -629 652 -645 842 -671 69 -10 109 -10 179 -1
102 14 165 40 267 110 99 69 2139 2111 2190 2193 60 96 84 150 91 208 4 30 14
78 23 106 13 46 13 54 0 75 -8 13 -18 49 -21 80 -9 70 -40 137 -107 229 -53
73 -2054 2084 -2135 2145 -117 89 -182 122 -267 134 -38 5 -74 14 -80 19 -24
19 -53 21 -82 6z m-126 -338 c10 -12 7 -26 -13 -69 -14 -30 -26 -62 -26 -71 0
-9 -7 -31 -16 -48 -9 -17 -24 -54 -34 -82 -10 -28 -30 -80 -43 -116 -55 -141
-80 -207 -99 -260 -11 -30 -28 -73 -39 -96 -10 -22 -19 -48 -19 -58 0 -9 -9
-34 -19 -54 -17 -32 -50 -101 -135 -282 -9 -19 -28 -43 -42 -53 -22 -16 -29
-17 -57 -6 -34 13 -134 57 -202 89 -144 67 -173 80 -183 80 -18 0 -72 51 -72
67 0 16 859 879 935 940 46 37 49 38 64 19z m836 -463 c260 -258 475 -476 479
-486 9 -22 -24 -63 -58 -73 -19 -5 -86 -35 -191 -84 -68 -32 -169 -76 -202
-90 -28 -11 -36 -10 -59 5 -14 9 -32 33 -40 53 -8 20 -20 46 -26 57 -12 20
-20 37 -66 135 -14 30 -33 71 -43 90 -9 19 -20 51 -24 70 -4 19 -16 51 -26 70
-11 19 -19 41 -19 49 0 8 -9 33 -19 55 -11 23 -28 66 -39 96 -18 51 -39 107
-97 255 -12 33 -28 76 -35 95 -7 19 -24 61 -37 93 -13 31 -21 62 -18 67 20 33
62 -4 520 -457z m-647 185 c5 -7 15 -33 22 -58 7 -25 18 -56 26 -70 7 -14 22
-50 33 -80 37 -108 43 -125 63 -166 11 -23 23 -57 28 -75 4 -19 18 -59 30 -89
13 -30 34 -82 47 -115 13 -33 46 -104 74 -158 27 -54 49 -103 49 -110 0 -7 9
-23 20 -37 22 -29 26 -63 8 -77 -7 -6 -35 -15 -62 -22 -27 -7 -61 -18 -76 -26
-15 -8 -86 -19 -159 -26 -162 -14 -370 1 -437 32 -24 10 -47 19 -51 19 -4 0
-25 5 -45 11 -30 8 -38 15 -38 33 0 13 31 86 69 162 80 161 107 224 163 384
10 30 27 71 38 91 11 20 20 45 20 55 0 11 12 42 25 69 14 28 25 57 25 65 0 8
9 31 19 51 11 20 25 56 31 80 14 52 26 69 50 69 10 0 22 -6 28 -12z m-1346
-895 c8 -10 22 -39 32 -65 10 -26 22 -50 27 -53 5 -4 9 -13 9 -22 0 -15 23
-69 80 -188 11 -22 26 -56 35 -75 8 -19 20 -42 26 -51 7 -9 10 -23 7 -31 -3
-8 -59 -40 -124 -72 -66 -31 -136 -66 -156 -77 -20 -10 -43 -19 -50 -19 -7 0
-35 -11 -63 -25 -27 -13 -57 -25 -65 -25 -8 0 -37 -11 -65 -25 -27 -13 -57
-25 -65 -25 -8 0 -37 -11 -65 -25 -27 -13 -57 -25 -65 -25 -8 0 -37 -11 -65
-25 -27 -13 -57 -25 -65 -25 -8 0 -37 -11 -65 -25 -27 -13 -57 -25 -65 -25 -9
0 -33 -9 -55 -20 -21 -11 -62 -26 -91 -35 -29 -8 -56 -20 -59 -25 -10 -16 -45
-12 -45 6 0 30 60 95 506 542 292 292 458 452 471 452 11 0 27 -8 35 -17z
m3149 -450 c256 -258 474 -481 483 -497 27 -42 8 -53 -46 -27 -25 11 -51 21
-59 21 -8 0 -36 12 -64 25 -27 14 -57 25 -65 25 -8 0 -37 12 -65 25 -27 14
-57 25 -65 25 -8 0 -37 12 -65 25 -27 14 -57 25 -65 25 -8 0 -37 12 -65 25
-27 14 -57 25 -65 25 -8 0 -37 12 -65 25 -27 14 -57 25 -65 25 -8 0 -37 12
-65 25 -27 14 -56 25 -63 25 -12 0 -72 27 -163 76 -26 13 -52 24 -57 24 -21 0
-112 63 -112 77 0 8 8 27 19 41 10 15 21 40 25 56 4 17 15 41 25 55 10 14 21
39 25 55 4 17 16 42 27 57 10 15 19 33 19 41 0 7 14 40 30 73 16 33 30 65 30
72 0 17 29 43 48 43 10 0 227 -210 483 -467z m-2752 301 c66 -27 121 -61 121
-76 0 -17 -55 -79 -87 -99 -33 -21 -53 -19 -53 5 0 7 -13 37 -29 67 -33 63
-48 129 -30 129 7 0 42 -12 78 -26z m1923 -9 c-2 -17 -16 -57 -33 -91 -16 -33
-29 -66 -29 -72 0 -21 -21 -24 -48 -6 -40 25 -92 81 -92 97 0 19 39 45 115 79
75 33 91 32 87 -7z m-1516 -170 c12 -8 43 -19 70 -25 27 -6 69 -19 94 -29 25
-11 77 -22 115 -26 39 -4 98 -13 133 -21 35 -8 81 -14 102 -14 21 0 67 6 102
14 35 8 95 17 133 21 39 4 89 15 113 25 24 11 60 22 80 26 20 4 54 15 74 25
64 32 81 26 145 -49 32 -37 77 -84 101 -102 57 -46 77 -83 63 -119 -5 -14 -13
-42 -16 -61 -4 -19 -13 -45 -21 -57 -7 -12 -26 -70 -41 -130 -25 -99 -27 -125
-28 -298 0 -180 2 -195 29 -290 16 -55 33 -108 38 -119 12 -22 48 -151 48
-168 -1 -7 -21 -29 -46 -48 -44 -34 -97 -85 -157 -151 -26 -28 -32 -31 -69
-25 -23 4 -56 14 -74 22 -18 8 -56 21 -86 29 -29 7 -73 21 -98 31 -38 14 -82
17 -295 17 -217 0 -255 -2 -290 -18 -22 -9 -69 -25 -105 -35 -36 -10 -86 -26
-112 -35 -62 -22 -91 -14 -127 35 -16 22 -48 55 -72 75 -24 20 -60 51 -80 70
l-37 34 15 48 c9 26 24 73 35 103 65 189 81 284 75 460 -4 149 -40 343 -71
393 -8 12 -17 38 -21 57 -3 19 -11 47 -16 61 -14 36 6 73 63 119 24 18 69 65
101 102 62 73 90 84 133 53z m-492 -381 c9 -8 16 -21 16 -28 0 -8 9 -33 19
-58 11 -24 32 -115 47 -202 l27 -158 -28 -142 c-15 -77 -36 -159 -46 -181 -9
-23 -21 -53 -25 -69 -3 -15 -13 -30 -20 -33 -12 -4 -86 24 -124 48 -8 5 -31
16 -50 24 -19 9 -42 20 -50 25 -8 6 -31 17 -50 26 -19 8 -53 24 -76 34 -23 11
-47 20 -55 20 -8 0 -36 11 -64 25 -27 13 -57 25 -65 25 -8 0 -37 11 -65 25
-27 13 -57 25 -65 25 -8 0 -37 11 -65 25 -27 13 -57 25 -65 25 -9 0 -34 9 -55
20 -22 11 -58 25 -80 31 -49 13 -115 55 -115 73 0 8 19 18 46 25 25 6 62 20
82 31 20 11 44 20 52 20 8 0 38 11 65 25 28 13 57 25 65 25 8 0 38 11 65 25
28 13 57 25 65 25 8 0 38 11 65 25 28 13 57 25 65 25 8 0 38 11 65 25 28 13
55 25 61 25 6 0 82 36 169 80 87 44 161 80 166 80 4 0 15 -7 23 -16z m2182
-54 c63 -32 120 -63 127 -68 7 -6 30 -15 52 -21 22 -6 58 -20 80 -31 21 -11
46 -20 55 -20 8 0 38 -12 65 -25 28 -14 57 -25 65 -25 8 0 38 -12 65 -25 28
-14 57 -25 65 -25 8 0 38 -12 65 -25 28 -14 57 -25 65 -25 8 0 32 -9 52 -20
20 -11 57 -25 82 -31 27 -7 46 -17 46 -25 0 -18 -66 -60 -115 -73 -22 -6 -58
-20 -80 -31 -21 -11 -46 -20 -55 -20 -8 0 -37 -12 -65 -25 -27 -14 -57 -25
-65 -25 -8 0 -37 -12 -65 -25 -27 -14 -57 -25 -65 -25 -8 0 -37 -12 -65 -25
-27 -14 -56 -25 -64 -25 -8 0 -32 -9 -55 -20 -23 -10 -57 -26 -76 -34 -19 -9
-42 -20 -50 -26 -8 -5 -31 -16 -50 -25 -19 -8 -42 -19 -50 -24 -8 -5 -39 -20
-67 -34 l-53 -26 -15 22 c-8 12 -15 28 -15 37 0 8 -7 29 -16 45 -14 28 -39
128 -66 265 -5 30 -7 80 -4 110 13 113 49 286 67 322 11 21 19 43 19 49 0 23
33 50 52 43 10 -3 70 -32 134 -64z m-3371 -565 c28 -14 58 -25 65 -25 8 0 32
-8 54 -19 23 -10 61 -26 86 -34 110 -38 168 -60 206 -78 22 -10 48 -19 58 -19
10 0 35 -9 55 -20 20 -10 52 -23 71 -29 113 -31 487 -207 495 -233 6 -15 -10
-57 -65 -173 -10 -22 -33 -71 -50 -110 -17 -38 -40 -88 -50 -110 -11 -22 -26
-57 -34 -77 -9 -23 -26 -43 -41 -50 -26 -12 -36 -3 -500 463 -261 260 -478
487 -484 502 -6 16 -8 33 -5 39 9 15 78 1 139 -27z m4525 14 c0 -11 -13 -39
-29 -62 -16 -23 -232 -244 -480 -491 -439 -439 -450 -449 -476 -438 -15 7 -32
28 -41 50 -8 20 -23 55 -34 77 -10 22 -33 72 -50 110 -17 39 -40 88 -50 110
-66 141 -72 157 -61 181 6 13 16 24 23 24 7 0 64 25 128 56 176 86 272 127
340 145 19 6 51 18 70 28 19 11 51 22 70 26 19 4 46 13 60 21 23 13 78 33 190
71 25 8 61 23 81 34 20 10 45 19 55 19 10 0 37 9 61 21 89 43 143 50 143 18z
m-3165 -672 c19 -19 35 -41 35 -49 0 -22 -41 -55 -84 -67 -21 -5 -46 -17 -56
-26 -24 -22 -54 -15 -58 13 -2 12 10 51 27 86 17 34 31 67 31 73 0 34 56 17
105 -30z m1800 -33 c20 -42 35 -86 33 -97 -4 -29 -32 -33 -63 -8 -14 11 -40
23 -58 26 -37 8 -77 41 -77 64 0 32 99 108 122 94 4 -2 24 -38 43 -79z m-810
-43 c75 -13 196 -46 231 -64 59 -30 59 -35 4 -143 -27 -54 -50 -104 -50 -110
0 -6 -7 -17 -15 -24 -8 -7 -20 -31 -27 -54 -7 -22 -20 -54 -30 -71 -10 -16
-18 -39 -18 -49 0 -11 -9 -38 -19 -60 -11 -23 -28 -66 -39 -96 -11 -30 -31
-84 -45 -120 -13 -36 -30 -81 -37 -100 -7 -19 -21 -55 -32 -80 -10 -25 -24
-65 -31 -89 -24 -86 -70 -81 -98 10 -9 30 -24 68 -33 84 -9 17 -16 38 -16 49
0 10 -9 35 -19 55 -11 20 -26 56 -34 81 -34 98 -59 167 -78 206 -10 22 -19 48
-19 58 0 9 -11 38 -25 64 -14 26 -25 54 -25 63 0 9 -8 27 -19 40 -10 13 -23
41 -30 61 -7 20 -19 42 -27 48 -7 7 -14 18 -14 25 0 6 -11 33 -25 58 -13 26
-22 53 -19 60 10 27 152 77 274 97 61 10 254 10 315 1z m-778 -203 c7 -5 17
-26 24 -46 7 -20 20 -48 30 -61 11 -13 19 -28 19 -33 0 -8 17 -47 75 -173 8
-16 23 -55 33 -85 11 -30 31 -84 45 -120 65 -169 80 -208 94 -250 9 -25 24
-63 34 -86 11 -22 19 -47 19 -55 0 -8 11 -36 25 -64 13 -27 25 -57 25 -65 0
-8 11 -37 25 -65 31 -63 33 -115 6 -115 -11 0 -41 18 -68 39 -81 66 -943 936
-943 953 0 20 18 35 55 44 17 4 41 15 55 24 14 9 38 20 54 24 17 4 41 16 55
26 15 10 45 23 67 29 23 6 47 18 54 26 7 8 20 15 30 15 9 0 41 13 71 30 54 29
88 32 116 8z m1360 -8 c31 -16 64 -30 73 -30 10 0 23 -7 30 -15 7 -8 31 -20
54 -27 22 -6 53 -20 67 -29 14 -10 38 -21 55 -25 16 -4 40 -15 54 -24 14 -10
39 -21 57 -24 46 -10 58 -28 39 -63 -17 -32 -904 -917 -953 -951 -18 -12 -39
-22 -48 -22 -22 0 -20 57 4 101 11 20 25 56 31 80 6 24 17 53 25 64 7 11 16
36 20 55 4 19 15 51 25 70 10 19 25 55 33 80 8 25 27 77 42 115 15 39 36 95
47 125 11 30 28 73 39 96 10 22 19 46 19 54 0 7 9 31 19 54 11 23 30 66 44 96
96 213 117 246 160 249 4 1 33 -12 64 -29z"/>
</g>
</svg>
